<?xml version="1.0" encoding="utf-8"?>
<!-- Generator: Adobe Illustrator 22.1.0, SVG Export Plug-In . SVG Version: 6.00 Build 0)  -->
<svg version="1.1" id="Layer_1" xmlns="http://www.w3.org/2000/svg" xmlns:xlink="http://www.w3.org/1999/xlink" x="0px" y="0px"
	 viewBox="0 0 162.2 30" style="enable-background:new 0 0 162.2 30;" xml:space="preserve">
<g>
	<path d="M0,30h35.9L18,0.9L0,30z M3.9,27.9L18,5.1L32,27.9H3.9z"/>
	<path d="M42.6,29.1L60.5,0L24.6,0L42.6,29.1z M42.6,24.9L28.5,2.1h28.1L42.6,24.9z"/>
	<g>
		<path d="M63.7,27.6L69,14.6h2l5.6,12.9h-2.1l-1.6-3.9h-5.8l-1.5,3.9H63.7z M67.6,22.2h4.7l-1.4-3.6c-0.4-1.1-0.8-2-1-2.7
			c-0.2,0.8-0.4,1.7-0.7,2.5L67.6,22.2z"/>
		<path d="M77,16.1v-1.5h10.9v1.5h-4.6v11.4h-1.8V16.1H77z"/>
		<path d="M89.2,21.2c0-2.1,0.6-3.8,1.8-5c1.2-1.2,2.8-1.8,4.8-1.8c1.3,0,2.4,0.3,3.4,0.9c1,0.6,1.8,1.4,2.3,2.4
			c0.5,1,0.8,2.2,0.8,3.5c0,1.3-0.3,2.5-0.8,3.5c-0.6,1-1.4,1.8-2.4,2.4c-1,0.5-2.2,0.8-3.3,0.8c-1.3,0-2.5-0.3-3.5-0.9
			c-1-0.6-1.8-1.4-2.3-2.4C89.5,23.5,89.2,22.4,89.2,21.2z M91.1,21.3c0,1.6,0.4,2.8,1.3,3.7c0.9,0.9,2,1.3,3.4,1.3
			c1.4,0,2.5-0.5,3.4-1.4s1.3-2.2,1.3-3.9c0-1.1-0.2-2-0.6-2.8c-0.4-0.8-0.9-1.4-1.7-1.8c-0.7-0.4-1.6-0.6-2.5-0.6
			c-1.3,0-2.4,0.4-3.3,1.2C91.6,17.9,91.1,19.3,91.1,21.3z"/>
		<path d="M104.7,27.6V14.6h2.7l3.3,9.2c0.3,0.9,0.5,1.5,0.7,1.9c0.2-0.5,0.4-1.2,0.7-2.1l3.3-9h2.4v12.9h-1.7V16.7l-4,10.8h-1.6
			l-4-11v11H104.7z"/>
		<path d="M119.6,14.6h1.9l2.1,8.5c0.2,0.9,0.4,1.8,0.6,2.6c0.4-1.4,0.6-2.2,0.6-2.4l2.6-8.7h2.2l2,6.5c0.5,1.6,0.9,3.2,1.1,4.6
			c0.2-0.8,0.4-1.8,0.7-2.8l2.2-8.3h1.8l-3.8,12.9h-1.8l-2.9-9.9c-0.2-0.8-0.4-1.3-0.4-1.5c-0.1,0.6-0.3,1.1-0.4,1.5l-2.9,9.9h-1.9
			L119.6,14.6z"/>
		<path d="M139,27.6V14.6h10v1.5h-8.1v4h7.6v1.5h-7.6V26h8.5v1.5H139z"/>
		<path d="M151.8,27.6V14.6h5.2c1.1,0,1.9,0.1,2.5,0.4c0.6,0.3,1.1,0.7,1.5,1.2c0.4,0.5,0.5,1.1,0.5,1.7c0,0.6-0.2,1.1-0.5,1.6
			c-0.3,0.5-0.8,0.9-1.4,1.2c0.8,0.2,1.5,0.6,1.9,1.2c0.4,0.6,0.7,1.2,0.7,2c0,0.6-0.1,1.2-0.4,1.7c-0.3,0.5-0.6,0.9-1,1.2
			c-0.4,0.3-0.9,0.5-1.5,0.6c-0.6,0.1-1.3,0.2-2.2,0.2H151.8z M153.6,20.1h3c0.8,0,1.4,0,1.7-0.2c0.5-0.1,0.8-0.3,1-0.6
			c0.2-0.3,0.4-0.7,0.4-1.1c0-0.4-0.1-0.8-0.3-1.1c-0.2-0.3-0.5-0.5-0.9-0.7c-0.4-0.1-1.1-0.2-2.1-0.2h-2.8V20.1z M153.6,26h3.4
			c0.6,0,1,0,1.2-0.1c0.4-0.1,0.8-0.2,1.1-0.4c0.3-0.2,0.5-0.4,0.7-0.7s0.3-0.7,0.3-1.1c0-0.5-0.1-0.9-0.4-1.3
			c-0.3-0.4-0.6-0.6-1.1-0.8c-0.5-0.1-1.1-0.2-2-0.2h-3.2V26z"/>
	</g>
</g>
</svg>
